HIERARCHY
ROOT Hips
{
	OFFSET 0.000000 0.000000 0.000000
	CHANNELS 6 Xposition Yposition Zposition Zrotation Yrotation Xrotation 
	JOINT LowerBack
	{
		OFFSET 0.000000 0.000000 0.000000
		CHANNELS 3 Zrotation Yrotation Xrotation
		JOINT Spine
		{
			OFFSET 0.028270 2.035590 -0.193380
			CHANNELS 3 Zrotation Yrotation Xrotation
			JOINT Spine1
			{
				OFFSET 0.056720 2.048850 -0.042750
				CHANNELS 3 Zrotation Yrotation Xrotation
				JOINT Neck
				{
					OFFSET 0.000000 0.000000 0.000000
					CHANNELS 3 Zrotation Yrotation Xrotation
					JOINT Neck1
					{
						OFFSET -0.054170 1.746240 0.172020
						CHANNELS 3 Zrotation Yrotation Xrotation
						JOINT Head
						{
							OFFSET 0.104070 1.761360 -0.123970
							CHANNELS 3 Zrotation Yrotation Xrotation
							End Site
							{
								OFFSET 0.000000 0.000000 0.000000
							}
						}
					}
				}
				JOINT LeftShoulder
				{
					OFFSET 0.000000 0.000000 0.000000
					CHANNELS 3 Zrotation Yrotation Xrotation
					JOINT LeftArm
					{
						OFFSET 3.362410 1.200890 -0.311210
						CHANNELS 3 Zrotation Yrotation Xrotation
						JOINT LeftForeArm
						{
							OFFSET 4.983000 -0.000000 -0.000000
							CHANNELS 3 Zrotation Yrotation Xrotation
							JOINT LeftHand
							{
								OFFSET 3.483560 -0.000000 -0.000000
								CHANNELS 3 Zrotation Yrotation Xrotation
								JOINT LeftFingerBase
								{
									OFFSET 0.000000 0.000000 0.000000
									CHANNELS 3 Zrotation Yrotation Xrotation
									JOINT LeftHandIndex1
									{
										OFFSET 0.715260 -0.000000 -0.000000
										CHANNELS 3 Zrotation Yrotation Xrotation
										End Site
										{
											OFFSET 0.000000 0.000000 0.000000
										}
									}
								}
								JOINT LThumb
								{
									OFFSET 0.000000 0.000000 0.000000
									CHANNELS 3 Zrotation Yrotation Xrotation
									End Site
									{
										OFFSET 0.000000 0.000000 0.000000
									}
								}
							}
						}
					}
				}
				JOINT RightShoulder
				{
					OFFSET 0.000000 0.000000 0.000000
					CHANNELS 3 Zrotation Yrotation Xrotation
					JOINT RightArm
					{
						OFFSET -3.136600 1.374050 -0.404650
						CHANNELS 3 Zrotation Yrotation Xrotation
						JOINT RightForeArm
						{
							OFFSET -5.241900 -0.000000 -0.000000
							CHANNELS 3 Zrotation Yrotation Xrotation
							JOINT RightHand
							{
								OFFSET -3.444170 -0.000000 -0.000000
								CHANNELS 3 Zrotation Yrotation Xrotation
								JOINT RightFingerBase
								{
									OFFSET 0.000000 0.000000 0.000000
									CHANNELS 3 Zrotation Yrotation Xrotation
									JOINT RightHandIndex1
									{
										OFFSET -0.622530 -0.000000 -0.000000
										CHANNELS 3 Zrotation Yrotation Xrotation
										End Site
										{
											OFFSET 0.000000 0.000000 0.000000
										}
									}
								}
								JOINT RThumb
								{
									OFFSET 0.000000 0.000000 0.000000
									CHANNELS 3 Zrotation Yrotation Xrotation
									End Site
									{
										OFFSET 0.000000 0.000000 0.000000
									}
								}
							}
						}
					}
				}
			}
		}
	}
}
}
MOTION
Frames: 10
Frame Time: 0.008333
-2.389197 15.829778 1.687815 -128.920451 -85.192385 151.360047 0.113287 -1.188227 9.978986 -0.554401 -0.937539 -0.867144 -5.253445 -0.864162 -0.031251 7.945522 -8.847295 -7.609298 -2.482724 -0.158312 -0.359564 0.000000 0.000000 0.000000 7.080027 9.301720 0.529777 -71.480617 -6.919672 2.907039 0.074644 -88.257585 0.012024 -1.674327 3.767693 -0.049995 0.015754 0.330580 0.000000 0.000000 0.000000 0.000000 0.000000 0.000000 0.000000 7.910508 -4.385403 1.968228 73.614705 -0.730879 4.496351 1.703279 50.492662 0.004843 -1.823549 8.776187 -0.148257 0.069164 -0.228395 0.000000 0.000000 0.000000 0.000000 0.000000 0.000000 0.000000 
-2.543866 15.860587 1.682902 -126.592649 -85.377777 149.141702 0.513837 -1.356604 10.019289 -0.467188 -1.117620 -0.839279 -5.239973 -1.042212 0.023955 7.992430 -9.224894 -7.647260 -2.496574 -0.159094 -0.369200 0.000000 0.000000 0.000000 7.614353 9.095936 0.421516 -70.744219 -7.657450 2.567824 0.150707 -89.728667 0.013991 -1.872213 3.766374 -0.055927 0.022724 0.342152 0.000000 0.000000 0.000000 0.000000 0.000000 0.000000 0.000000 8.001724 -4.897478 2.020756 73.385819 -1.712744 4.472867 1.712897 50.700437 0.005528 -1.696604 8.849385 -0.139251 0.068767 -0.223385 0.000000 0.000000 0.000000 0.000000 0.000000 0.000000 0.000000 
-2.700033 15.890992 1.676975 -124.373275 -85.552193 147.059555 0.902702 -1.519698 10.031833 -0.382216 -1.293599 -0.816444 -5.224210 -1.216734 0.084850 8.039507 -9.637134 -7.709247 -2.506430 -0.159321 -0.385158 0.000000 0.000000 0.000000 8.128652 8.936823 0.319752 -69.967355 -8.354224 2.153831 -179.774929 -88.813242 -179.984257 -2.037616 3.780055 -0.061160 0.029273 0.353325 0.000000 0.000000 0.000000 0.000000 0.000000 0.000000 0.000000 8.083750 -5.433456 2.064106 73.136314 -2.706531 4.473753 1.714450 51.096852 0.006176 -1.547654 8.893448 -0.127945 0.068072 -0.219006 0.000000 0.000000 0.000000 0.000000 0.000000 0.000000 0.000000 
-2.858104 15.920643 1.669793 -122.324568 -85.721023 145.177989 1.274154 -1.678478 10.012824 -0.300337 -1.466533 -0.797297 -5.206042 -1.388565 0.159869 8.089218 -10.112158 -7.803568 -2.509859 -0.158693 -0.409659 0.000000 0.000000 0.000000 8.611299 8.841450 0.222527 -69.141725 -9.024966 1.681528 -179.702739 -87.372135 -179.982703 -2.169322 3.812458 -0.065794 0.035218 0.363918 0.000000 0.000000 0.000000 0.000000 0.000000 0.000000 0.000000 8.156310 -6.025673 2.096526 72.862337 -3.670006 4.542349 1.709647 51.642816 0.006767 -1.403205 8.921028 -0.116737 0.067471 -0.215212 0.000000 0.000000 0.000000 0.000000 0.000000 0.000000 0.000000 
-3.018069 15.949217 1.661370 -120.399010 -85.884628 143.449525 1.631946 -1.831302 9.961369 -0.220838 -1.635094 -0.786169 -5.185190 -1.556921 0.233635 8.137233 -10.594274 -7.911420 -2.509890 -0.157704 -0.437382 0.000000 0.000000 0.000000 9.081203 8.767215 0.133451 -68.290440 -9.622884 1.129965 -179.633095 -85.947964 -179.981245 -2.281730 3.844623 -0.069829 0.040959 0.374274 0.000000 0.000000 0.000000 0.000000 0.000000 0.000000 0.000000 8.215826 -6.612270 2.121218 72.588782 -4.672221 4.574582 1.696443 52.364007 0.007354 -1.218191 8.917489 -0.101730 0.066331 -0.212032 0.000000 0.000000 0.000000 0.000000 0.000000 0.000000 0.000000 
-3.180466 15.976398 1.651280 -118.710692 -86.051920 141.989221 1.964698 -1.980574 9.876315 -0.145606 -1.801454 -0.779505 -5.161616 -1.723469 0.320702 8.188351 -11.132518 -8.048095 -2.502847 -0.155845 -0.472598 0.000000 0.000000 0.000000 9.518551 8.747298 0.049382 -67.396805 -10.179857 0.526456 -179.566092 -84.542429 -179.979943 -2.371031 3.887315 -0.073363 0.046202 0.384055 -0.000000 0.000000 0.000000 0.000000 0.000000 0.000000 0.000000 8.264355 -7.249684 2.135182 72.300817 -5.639726 4.658525 1.677377 53.201770 0.007890 -1.044509 8.907379 -0.087621 0.065356 -0.209424 0.000000 0.000000 0.000000 0.000000 0.000000 0.000000 0.000000 
-3.345098 16.001972 1.639611 -117.234133 -86.222704 140.766083 2.275495 -2.126051 9.760444 -0.073861 -1.965360 -0.778787 -5.134913 -1.888179 0.413591 8.239768 -11.700246 -8.204657 -2.489941 -0.153319 -0.512815 0.000000 0.000000 0.000000 9.931047 8.760605 -0.027792 -66.475312 -10.671442 -0.135766 -179.501887 -83.154860 -179.978724 -2.447669 3.929608 -0.076598 0.051209 0.393440 -0.000000 0.000000 0.000000 0.000000 0.000000 0.000000 0.000000 8.298492 -7.908549 2.140211 72.009174 -6.599450 4.750804 1.651768 54.156832 0.008392 -0.870066 8.889976 -0.073511 0.064339 -0.207409 0.000000 0.000000 0.000000 0.000000 0.000000 0.000000 0.000000 
-3.512237 16.025700 1.626295 -116.020410 -86.398554 139.830754 2.562183 -2.267885 9.617768 -0.005837 -2.126676 -0.783255 -5.104687 -2.050866 0.511827 8.291186 -12.294169 -8.380164 -2.470876 -0.150088 -0.557912 0.000000 0.000000 0.000000 10.319288 8.804925 -0.097556 -65.533712 -11.093484 -0.851751 -179.440611 -81.788042 -179.977542 -2.518524 3.966453 -0.079633 0.056095 0.402476 -0.000000 0.000000 0.000000 0.000000 0.000000 0.000000 0.000000 8.317252 -8.585559 2.136846 71.715208 -7.546161 4.848672 1.619804 55.214091 0.008858 -0.701006 8.871058 -0.059801 0.063335 -0.206011 0.000000 0.000000 0.000000 0.000000 0.000000 0.000000 0.000000 
-3.681657 16.047447 1.611499 -115.096732 -86.576371 139.203048 2.827795 -2.406020 9.454284 0.059323 -2.285029 -0.792285 -5.070413 -2.211158 0.613115 8.340678 -12.906283 -8.572260 -2.445699 -0.146161 -0.607349 0.000000 0.000000 0.000000 10.684463 8.874788 -0.159181 -64.583535 -11.438347 -1.618433 -179.382291 -80.442818 -179.976354 -2.589564 3.992734 -0.082468 0.060996 0.411246 -0.000000 0.000000 0.000000 0.000000 0.000000 0.000000 0.000000 8.317389 -9.271701 2.126092 71.420661 -8.479074 4.947428 1.581629 56.361612 0.009284 -0.542801 8.855407 -0.047090 0.062375 -0.205246 0.000000 0.000000 0.000000 0.000000 0.000000 0.000000 0.000000 
-3.853325 16.067137 1.595387 -114.519540 -86.751638 138.934879 3.075413 -2.540113 9.277150 0.122268 -2.439674 -0.805476 -5.032225 -2.368330 0.713027 8.386907 -13.518929 -8.776309 -2.415560 -0.141658 -0.660038 0.000000 0.000000 0.000000 11.029463 8.962273 -0.210734 -63.637145 -11.694829 -2.433251 -179.326855 -79.121993 -179.975126 -2.665316 4.004225 -0.085003 0.065983 0.419828 -0.000000 0.000000 0.000000 0.000000 0.000000 0.000000 0.000000 8.299133 -9.947025 2.109302 71.128076 -9.409229 5.027315 1.536913 57.597492 0.009673 -0.391248 8.842202 -0.034878 0.061358 -0.205138 0.000000 0.000000 0.000000 0.000000 0.000000 0.000000 0.000000 
